<?xml version="1.0" encoding="UTF-8"?>
<svg id="Layer_1" xmlns="http://www.w3.org/2000/svg" version="1.1" viewBox="0 0 792 612">
  <!-- Generator: Adobe Illustrator 29.1.0, SVG Export Plug-In . SVG Version: 2.1.0 Build 142)  -->
  <defs>
    <style>
      .st0 {
        fill: #fff;
      }
    </style>
  </defs>
  <path class="st0" d="M759.71,237.64c2.23,1.12,5.02,1.43,8.12,1.52,4.05.11,8.26-.44,12.34-.39.59,3.62-3.4,4.3-5.16,6.29-4.87,5.5-10.06,12.42-14.59,17.82-.52.62-4.65,3.55-4.99,4.34-.13.31.56,1.14.49,1.19-3.49,2.81-3.69,2.98-7.07,6.76-.86.97-6.03,5.81-6.21,6.21-.14.33.53,1.14.47,1.19-.16.12-1.24-.21-1.8.19-.82.59-1.64,3.02-2.4,3.65-3.48,2.86-3.8,3.24-6.82,6.69-.87,1-4.64,3.94-4.88,4.32-.44.71.49,1.95.4,2.01-.2.15-1.76-.34-3.04.68-.59.47-2.99,4.08-2.9,4.94.3,3.04,4.53,4.45,5.66,6.08,5.51,7.88,10.8,14.94,16.7,22.69.34.44-.83,1.93,2.44,2.02l-1.34,1c3.55,1.19,5.99,4.94,6.75,8.44l1.33-.69c-.81,2.69.96,2.49,1.59,3.47,1.04,1.61,2.05,3.37,3.24,4.87,6.2,7.79,11.91,15.2,17.69,22.71,1.96,2.54,3.93,5.07,5.77,7.72l-9.2-.12c-2.82.97-5.95.78-8.62.78-1.92,0-5.44.43-6.7.33-.45-.04-.41-.97-.57-1.04-.47-.21-1.07.16-1.52-.24-5.1-4.4-7.87-10.37-11.81-15.72-10.48-14.22-20.56-27.85-30.3-41.3-.78-1.08-2.21-1.4-2.52-1.81-.44-.58.91-3.67-3.55-3.25-.27-1.22,1.13-.42,1.34-.67s-.87-1.33-1.01-1.33c-.31.01-.94,1.54-1.53,2.01-.7.56-3.29,1.96-3.4,2.13-.57.89,1.24,8.52,1.12,9-.1.37-1.03.23-1.1.66-.07.46-.02,8.89.05,9.35.12.75,1,1.11,1.15,1.45.25.56-1.16.09-1.35.75-.16.53,1.29,8.35,1.28,10.08,0,.38-1.19.2-1.19.58-.04,2.64.43,5.26,1.27,7.47.23.6-1.08.12-1.26.66-.07.19.64,3.06.6,4.06-.05,1.39-.75,5.06-.59,6.09.1.64,1.24-.04,1.26.65,0,.39-1.84.09-1.17,2.01,1.48,4.29-.16,2.7-.12,3.33.1,1.57,1.15,2.98-.07,5.11-4.2-.78-8.76-.58-13.12-.66-2.6-.05-4.78,1.81-6.96-1.69l.54-142.56c3.92-1.42,6.69-.33,10.52-.29,1.29.01,8.59-.59,8.96-.34,1.25.85.09,4.07.23,4.92.21,1.29,2.47,1.39-.07,2.08.54,11.64.29,23.34.59,35.05.02.9-.63,1.73-.64,2.11s1.42.13,1.3.6c-1.07,4.05-1.05,6.35-.68,10.81.08.91-.48,2.03,1.01,1.68.32-.08,4.11-4.08,4.72-4.73,3.56-3.83,6.87-8.55,10.23-12.71,1.31-1.62,3.18-1.87,3.27-2.06.42-.81.08-2.13.47-2.61.3-.37,5.36-5.18,6.62-6.49.79-.82,2.97-1.49,3.2-1.9.39-.68-.1-1.9.24-2.42.27-.41,1.74-.33,2.41-.98,1.27-1.25,2.25-3.87,3.14-4.95,1.97-2.39,4.12-3.65,5.87-5.26,1.17-1.08.61-2.67,1.24-3.43.6-.71,4.96-4.99,5.65-5.52.43-.33,1.25-.16,1.81-.2l-1.34-1.33c4.49-.45,3.79-6.2,8.51-3.83Z"/>
  <path class="st0" d="M287.72,245.99c2.71,6.12,8.22,16.23,9.87,22.25,1.47,5.36,3.71,9.69,5.2,14.02,3.37,9.83,9.74,24.55,14.14,33.48.18.36-.52,1.16-.46,1.21.21.16,1.52-.36,2.09.41,1.44,1.93.49,5.39,1.32,7.26.91,2.04,3.58,3.39,3.94,4.35.79,2.12-.07,5.03.2,5.86.13.4,1.11.31,1.4,1.18,3.78,11.28,9.4,23.13,13.88,34.1,1.71,4.17,2.43,8.88,5.46,12.58-.47.68-.88.86-1.67,1-2.6.45-15.23.3-17.57-.31-.52-.14-3.52-1.61-3.63-1.79-.25-.41.66-1.35.49-1.82-1.36-3.74-5.44-10.49-7.31-15.18-1.09-2.73-3.67-6.29-2.66-9.21l-1.34.69c.17-1.44-.84-2.54-1.15-3.82-.44-1.81.56-.45-.68-2.39-.19-.3.53-1.16.48-1.2-1.33-1.02-14.6,0-17.18.04-1.4.02-2.63-.68-3.98-.66-2.22.04-5.9,1.16-8.19.99-.66-.05-1.29-1.32-1.64-1.04-.08.06.09,1.43-.32,1.34-1.75-.37-2.53-1.21-5.01-1.01-1.85.15-1.78,2.2-2.4-.34-3.09,2.16-18.21-1.3-19.96,1.13-.37.52-.98,2.63-1.07,3.37-.16,1.34,1.65,1.77-1.59,1.57,1.66,3.23-.78,2.64-1.33,3.89-1.94,4.45-3.62,10.83-5.6,15.3-.5,1.13-4.12,3.73-1.16,4.06-2.11.58-3.16,6.1-3.44,6.33-1.4,1.17-17.88-.64-20.82.75v-3.37s1.34.69,1.34.69c-1.44-2.94.53-1.66,1.17-3.01.14-.28-.5-1.86-.03-2.89,2.28-5.06,4-11.2,6.36-16.46,7.04-15.68,13.96-31.37,20.89-47.17,5.91-13.47,13.45-29.99,18.55-41.88,4.37-10.18,8.94-22.64,13.39-32.8.81-1.85,2.95-4.35,3.03-6.78,1.12.62,2.32,2.46,2.82,3.59,1.51,3.43,2.52,8.07,4.14,11.72ZM285.49,291.99c-.08-.04.46-.92.14-1.77-.62-1.62-1.69-3.29-2.32-4.97-.45-1.22-1.37-6.02-2.21-6.03-.09,0-1.63.6-1.69.66-.08.09.8,1.52.72,2.27-.05.4-1.03.4-1.14.64-2.75,6.08-3.54,11.37-6.34,16.75-.41.8-1.6.85-1.84,1.63s.54,2.91-.18,4.45c-.38.8-1.54.94-2.15,2.06-2.5,4.6-4.36,9.79-6.09,14.12-1.4,3.51-4.39,5.38,1.86,6.43,2.61.44,15.84.54,18.91.24,1.34-.13.87-1.52,1.29-1.43.53.12,1.37,1.16,2.78,1.34,4.06.53,9.52-.96,13.74,0-.73-2.71-2.85-5.06-2.02-8.09l-1.34.68c.71-3.77-1.98-4.64-3.08-6.94-1.71-3.57-2.05-7.43-3.79-11.5-.26-.61.09-1.41-.08-1.67-2.73-.6-.24-.29.2-1.45-1.42.12-3.16-3.69-3.56-4.95-.44-1.39.3-2.4.2-2.47-.28-.2-1.59.22-2.02-.03Z"/>
  <path class="st0" d="M99.83,255.32c-1.9,3.67-4.46,8.02-6.38,11.58-.55,1.02-4.02,9.41-4.09,10-.1.88.75,2.21.68,2.31s-1.51.19-2.21.69c-2.09,1.5-10.09,16.51-11.72,19.7-2.33,4.58-3.09,10.59-6.12,15.33-1.54,2.41-2.4,2.74-4.22,5.62-6.95,11.04-12.63,24.49-18.65,35.52-.47.86-4.57,6.93-4.27,7.4h64.02c.53,6.94.66,14.05,0,20.91-4.4-1.71-9.4-.39-14.08-.32-7.51.11-16.67-.05-24.13.16-.76.02-2.66.08-3.23,0-.19-.03-1.66-2.61-2.69.16-2.31-2.61-1.38-.5-1.82-.19-1.67,1.17-3.83-.91-4.93-.91-2.2-.01-6.58.99-8.8,1.03-.31,0-.23-1.27-.68-1.33-.87-.12-2.16.74-3.31.74-4.77,0-10.64-.34-16.13-.36-3.84-.02-10.78,1.07-14.17.63-.83-.11-1.64-.18-2.38-.62l9.73-17.25c1.95-5.98,5.86-12.21,8.89-17.7,1.19-2.16,2.7-4.75,2.95-7.18l1.34.68c.16-2.72,1.55-5.17,2.77-7.53,5.56-10.78,10.9-20.34,16.52-30.88,4.79-8.98,8.59-15.77,12.14-25.64,1.24-3.45,2.54-2.64,3.25-3.33,3.15-3.1,3.83-8.83,4.55-11.64.25-.99,1.66-1.8,1.22-3.21-1.76.47-2.98-1.06-4.36-1.25-4.84-.68-12.29,1.4-16.98.99-2.31-.2-4.43-1.63-6.98-1.08l.34,1.35c-1.15.16-2.58-1.23-3.39-1.36-.29-.05-.24,1.08-.43,1.23-.52.39-1.43-.67-1.8-.4-.17.12-.03,1.15-.37,1.14-5.03-.15-9.53-1.85-14.21.05-.58.24-.11-.97-.64-1.2-.72-.31-3.46.4-4.4.54l-.19-16.43c-4.52-6.11,1.15-4.1,4.39-4.58,12.5-1.86,27.44,1.07,40.72.38,3.26-.17,6.6-.24,9.85-.44,3.9-.24,1.97.08,5.11.5,2.44.33,13.29.77,15.93.71,1.55-.03,2.85-1.48,3.38-1.46.46.01,1.17,1.01,2.04,1.1,1.42.14,5.67-2.13,5.72.99.03,1.64-1.7,2.62-2.3,3.81-1.85,3.68-3.55,7.43-5.44,11.09Z"/>
  <path class="st0" d="M526.61,236.34c2.79.39,7.85,1.3,11.36,2.31,1.29.37.37,2.1,3.61.8l-.68,1.32c.38.53,10.54,3.03,12.18,4.55,1.96,1.83.72,14.06.7,17.3,0,.99.63,2.12.64,3.41,0,1.66-1.42,3.23-.03,5.08-.54.52-4-1.87-4.7-2.38-1.09-.79-2-2.11-3.24-2.95-3.17-2.17-9.82-5.57-12.96-6.49-5.55-1.62-13.47-3.53-20.54-2.96-.84.07-1.58,1.04-2.06,1.08-.8.06-1.74-1.13-2.01-1.1-.55.04-.74,1.61-1.14,1.9-.14.1-2.52-.21-3.56.05-10.59,2.58-21.15,12.53-26.71,21.75-1.44,2.38-2.91,5.37-4.42,8.5-3.46,7.14-2.53,10.02-3.73,18.03-.05.35-1.17.27-1.16.6.1,1.69,2.48,3.62-.05,4.08l1.34,2.05c.39,1.94-1.21.14-1.33.32-1.01,1.41,1.21,1.32,1.24,1.67.12,1.26-.02,3.67.09,5.42.06.91-.59,1.71-.6,2.08,0,.41,2.98.24-.06,1.29,2.62,2.31,1.61,5.4,2.58,8.18.32.9,1.21.98,1.4,1.46,1.12,2.92,1.91,6.31,3.75,8.71,2.49-1.87,1.4,2.85,2.54,4.12.25.27,1.29-.03,1.65.28.21.18,1.32,2.95,2.25,4.01,10.56,12.12,33.63,20.52,49.02,13.4,2.39-1.11,6.61-2.45,8.72-3.63.83-.46,2.46-3.49,4.89-3.21l-.65-1.3c3.66.53,3.05-2.17,3.48-2.56.37-.34,1.76-.08,2.56-.49.99-.51,1.29-1.98,2.73-1.67.19,3.26,1.09,24.32-.13,25.45-1.5,1.4-4.67-.41-3.94,2.84-2.81-1.05-5.23,1.04-8.23,2.21-12.01,4.7-16.85,4.86-29.98,4.16-3.75-.2-8.31.62-11.31-2.32l-1,1.34c.19-.6-2.01-2.45-2.17-2.49-.59-.14-1.48.64-2.55.21-3.75-1.51-7.21-4.83-11.47-4.46l.68-1.34c-3.59.44-2.89-1.87-3.83-2.73-2.03-1.87-5.18-3.04-6.77-4.21-.58-.43-2.05-3.43-3.38-4.52-5.92-4.88-12.74-16.04-15.89-24.59-.44-1.19-1.18-2.89-1.55-3.87-2.72-7.39-2.15-10.03-2.65-17.74-.06-.98-1.2-3.13-.98-3.93.17-.61,2.43-.06,0-3.49l1.33-.32-1.31-.95c2.15-4.61-.61-10.11,1.95-14.93l-1.31-.29c-.34-1.08,1.04-.26,1.33-1.14.38-1.17.17-2.99.72-4.55,1.92-5.45,6.66-18.41,9.85-22.61.84-1.11,4.11-3.37,4.73-4.25.55-.78.74-3.03.91-3.16s.93,1.2,3.09-1.52c3.68-4.62,10.34-11.44,15.56-14.73.63-.4,1.78.07,2.25-.31.58-.48.59-1.59.66-1.64.39-.3,1.02,1.33,2.04,1.08,1.16-.29,2.8-2.16,4.07-2.72,7.61-3.36,23.04-4.74,32.15-3.48Z"/>
  <path class="st0" d="M118.61,388.9c.76.97,2.98,2.87,4.05,3.95,3.36,3.38,5.81,7.04,8.93,9.88,3.28,2.99,4.72,6.49,7.35,9.21,2.06,2.14,5.59,3.8,6.98,6.67s3.56,5.59,5.98,7.01c2.14,1.25,3.66,5.5,4.15,6.09,2.46,2.93,8.66,7.26,10.44,9.97.57.87.83,3.81,1.08,3.99.08.06.88-.64,1.17-.48.39.22,4.97,4.96,3.52,5.88,3.25-1.9,4.06,3.8,5.76,5.43s3.29,3.09,5.03,5c1.59,1.74.62,2.39,3.68,3.09.92.21,1.35.21.58-.67-.17-.19-.92.43-.88-.97.16-5.4.25-10.88.59-16.27-2.79-1.11-.33-.37.07-1.66h-2.02c-.63-1.81,1.21-1.1,1.33-1.77.38-2.03.47-6.33.55-8.61.47-13.46-1.11-27.36.29-40.68,1.33-.17,12.78-1.25,13.32-.84.37.28,1.15,5.43-.65,5.05,1.59.55.55,2.64.78,2.92.32.36,1.21-.21,1.24.46s-1.4,0-1.38.72c.02.53.61,1.25.57,1.97-.09,1.84-1.42,3.25.8,4.74.24.58-1.06.12-1.23.65-.13.39.1,7.09.13,8.24.07,2.33,1.75,4.4-.25,6.65,2.69.64.41.74.2,2.09-.67,4.36.31,13.24.33,18.05.03,8.97.19,18.34.18,27.72,0,1.64-1.02,10.43-.55,10.98.27.32,1.29-.17,1.19.45l-1.36.34,1.34,1c-1.17,1.33-2.93,4.39-.75,4.71-.94,2.59.5,10.21-.05,12.12-.11.39-1.51.67-1.23,1.7l-2.68-2.02,1.34-1c-.95-2.27-3.12-1.68-3.27-1.82-.99-.99-2.24-4.89-3.46-6.13-.99-.99-3.96-1.21-3.4-3.83l-1.32.66c.26-1.98,0-2.31-2.03-2.03l1.34-1.33c-2.49-.76-4.48-4.08-6.26-5.89-.55-.55-1.68-.49-2.3-1.05-.83-.75-1.73-4.47-2.4-5.03-.44-.37-1.49-.02-1.72-.26-.4-.41.14-1.76-.25-2.46-.22-.4-2.26-.97-3.01-1.73-1.15-1.17-1.25-3.18-1.68-3.69-.14-.17-1.47-1.14-2.81-2.6-2.64-2.88-6.53-5.42-7.87-7.45-.6-.91-1.93-3.53-2.84-4.06-.26-.15-1.11.57-1.17.5-.08-.09-.14-1.49-.7-2.34-1.34-2.02-4.63-4.63-6.56-6.65-.51-.53.53-2.41-2.21-1.79l1.34-1.33c-1.33.12-1.64-1.39-2.26-1.82s-1.64-.11-1.78-.22c-.06-.05.63-.89.49-1.19-.08-.17-.89-.26-1.14-.64-2.04-3.2-2.7-2.25-3.41-3.14-1.75-2.21-3.22-5.74-5.72-7.82-2.12-.27.02,1.09-.45,1.91-2.02,3.56.36,10.35-1.24,15.97-.11.37,1.27.22,1.36.72.33,1.89-.97,8.34-.98,10.47-.02,6.59.39,13.13.26,19.84-.08,4.12.34,8.82.35,13.68,0,2.09.4,7.86-1.28,8.59-.29.13-4.17.75-4.8.8-1.62.14-4.01-1.56-3.67.81h-.66c.48-2.32-2.98-.37-4.73-1.35.09-1.05.64-1.97.65-3.05,0-1.46.18-10.15.06-10.67-.13-.55-1.5-.4-1.39-.76.16-.52.99-1.11,1.15-2.16.52-3.44-1.21-3.69-1.15-3.91.15-.57,1.01-1.17,1.1-2.37.16-2.26-.92-6.65-.85-7.73.22-3.42,1.86-1.96-.25-6.77-.23-.53,1.32-.14,1.4-.73.11-.75-.63-1.84-.65-2.74-.03-1.98,1.27-5.7-.77-5.96,2.07-.38.71-2.23.76-4.04.33-14.17,0-29.21.23-43.12.04-2.38-.29-15.25.38-15.86,2.12-.43,1.39,1.56,1.62,1.84Z"/>
  <path class="st0" d="M365.56,394.32c.16-.13.05-1.15.4-1.14,2.28.04,13.38,1.05,15.29,1.58,1.01.28,2.27.83,3.97,1.32,2.96.85,7.67,2.14,8.77,5.13l1-1.34c3.34,1.35,2.94,2.88,4.65,4.5.37.35,3.28,1.48,3.58,1.76,2.71,2.58,6.3,8.37,8.37,12.05,4.72,8.42,6.38,16.48,6.38,26.85.01,16.6-3.04,23.29-12.44,36.17-2.02,2.76-10.42,9.78-14.24,12.05-1.01.6-4.68-1.49-4.73,1.66l-1-1.34c-.68.4-.77,1.65-1.12,1.87-.57.36-12.21,1.78-13.32,1.83-1.7.08-6.03-.89-7.86-.96-.34-.01-.21,1.25-.56,1.24-4.77-.13-10.09-.84-14.72-1.09-1.05-.06-2.58.85-3.87.47l.68-103.79c5.38,1.02,11.06,1.01,16.54.98.43,0,.92-.7,1.69-.67.85.03,2.18,1.16,2.54.89ZM389.09,413.63c-7-3.87-19.73-6.52-27.74-5.63-1.05.12-2,.49-2.73,1.27l-.34,74.18c4.68-1.32,9.64-.08,14.45-.71,2.17-.28,2.84-2.45,3.39.04,6.67-1.49,11.65-4.64,17.15-9.16,2.09-3.02,4.04-5.03,5.88-8.32,3.36-5.98,3.92-9.79,4.43-15.71.89-10.44-1.6-23.5-9.28-31.52-.61-.64-1.86-.49-2.18-.87-.42-.49,0-1.62-.15-1.84-.04-.06-.87.6-1.18.46-.2-.09-1.25-1.95-1.68-2.19Z"/>
  <path class="st0" d="M555.73,394.46c.12-.11-.22-1.18.31-1.24,2.24-.25,5.94,1.19,7.51,1.19.49,0-.04-1.14.62-1.3,1.55-.37.73,1.07,1.33,1.27.36.12,6.1-.98,7.46-.94,1.48.05,5.71,1.35,7.39,1.35.55,0,2.43-1.23,2.9-.85,3.32,2.68,4.24,1.7,6.82,2.89,5.17,2.39,10.31,7.11,12.74,12.24,5.49,11.58,4.47,25.59-3.93,35.09-1.07,1.21-6.19,6.52-7.56,7.36-.72.45-6.57.7-6.57,1.91,1.41.84,1.31,2.99,1.97,3.91,2.72,3.77,7.02,8.16,9.42,12.4.62,1.1.01,2.13.11,2.18.34.18,1.35-.18,1.79.19.41.34,4.32,7.95,5.14,9.06.68.93,3.47,2.77,3.69,3.08s-.5,2.22.1,3.36c.33.64,4.3,4.35,4.93,5.23,4.25,5.92-.25,4.21-4.6,4-3.16-.15-2.15-.25-3.33-.51-1.33-.29-5.37,1.48-7.11.24-1.19-2.87-3.5-4.55-5.15-6.97-4.49-6.57-7.29-11.84-11.89-18.48-2.76-3.99-2.45-4.48-3.88-8.05-.37-.92-3.49-2.91-3.81-3.37-.6-.83.48-4.97-3.89-4.61-3.62.3.44,4.7-2.36,4.08l1.35,1c-2.62.66-.51.86-.36,2.26.07.65.36,5.56.27,5.84-.1.31-3.27.7-.05,1.99l-.67,26.16-.93,1.07-13.09-.59c-.29-1.19,1.16-.45,1.35-.67.27-.34-.99-.98-1.05-1.64-.13-1.2.02-4.46.01-6.14-.05-6.05-.09-13.11.03-19.54.02-1.21,1.11-2.5,1.07-3.32-.02-.38-1.35-.33-1.34-.65.07-1.99.93-5.83.95-7.85.03-4.17-.66-8.49-.75-12.08-.15-6.07,1.31-12.29-.16-17.18-.37-1.24,2.58-3.38-.1-4.73,2.76-1.02.26-4.71.07-6.82-.39-4.19.64-14.97,1.01-19.59.09-1.18-.04-2.44-.4-3.57,1.13-.53,2.31,1.67,2.69,1.33ZM570.65,408.49c-.26-.23.21-1.42-.42-1.21-.54,1.24-3.19,1.66-3.56,2.17-.19.26-.75,5.62-.74,6.3,0,.16.58-.39.76,2.44.27,4.25-.42,2.49-.69,3.57-.78,3.17,1.16,3.12,1.15,3.33-.05,1.12-1.42,3.87-1.31,5.43,2.36-.73,1.39.9,0,2.04,2.85,1.17-1.64,6.08,1.38,8.74,1.82,1.6,2.3.07,3.65.03,4.36-.12,9.47-.2,13.49-2.39.62-.34,4.76-3.88,4.89-4.17s-.57-1.15-.5-1.2c.27-.19,1.56.22,2.01-.04.07-.04-.39-.88-.23-1.34.96-2.85,2.27-10.11,1.47-12.92-.12-.44-3.51-6.55-3.88-6.91-.31-.31-2.69-.08-3.4-.37l1.34-1.33c-4.46-1.51-8.53-2.1-13.23-2.64-.81-.09-1.98.66-2.18.48Z"/>
  <path class="st0" d="M497.72,393.19c.17.17.01.91.06,1.27l.94-1.28,12.89,1.24c.14,4.44-.36,8.51-.65,12.89-.74,1.11-12.89,1.01-14.89.96-5.24-.13-10.08-.03-16-.18-.84-.02-2.44.62-2.78.53-.77-.21-.1-1.39-.75-1.37-.22,0-.93,2.41-3.7.68v25.23c1.12,1.73,1.94,1.05,3.03-.28.19,1.69,3.51.98,5.37.96,3.52-.04,7.68-.31,11.46-.25,2.16.03,9.96,1.04,11.39.61.61-.18.35-1.26.43-1.32.35-.26,1.04,1.04,1.76,1.16,1.36.24,2.86-1.37,4.29,1.19l-1.34,1c3.17-.33-1.1,5.2,2.01,4.74v.66c-2.28-.43,0,3.43-1.68,5.38-1.44,1.68-7.75,1.05-10.12.99-.9-.02-1.77-1.59-3.37.39-.3-2.14-4.35-.33-6.64-.24-3.41.13-5.51-.06-8.86.21-2.21.18-4.49-1.91-6.4-.39-3.05,2.43-.98,8.73-1.04,12.21-.13,7.56-1.1,15.03-.3,22.57h38.42c.06,1.85-1.51,2.46.6,2.99l-.62,11.17-51.43-.07-1.12-103.05,39.04-.61Z"/>
  <path class="st0" d="M750.52,391.78l-.68,1.34c3.75-.64,9.19,3.16,11.9,5.63,1.33,1.21,7.37,10.08,6.25,11.19-.32.32-2.7-.87-1.98,2.06-2.75-1.29-1.54.16-2.87.92-.99.56-2.34.65-2.89,1.06-.64.48-.76,1.7-1.13,1.96-.1.07-2.39.11-2.47.02-.17-.21.05-1.25-.32-1.67-1.65-1.88-2.9-3.12-4.71-5-.3-.31.35-1.1-.12-1.37-.33-.19-6.82-1.89-7.44-1.95-5.58-.54-13.04,4.09-14.68,9.56-.61,2.01.32,4.29-1.04,6.29,2.13,1.08.8,2.81,3.32,4.57,1.85,1.29.68.69,2.01,2.11,1.15,1.22,3.94,1.44,4.04,3.73,1.19.33.3-1.51,1-1.34,1,.24,1.63,1.62,1.92,1.77,2.35,1.2,11.95,3.58,12.85,4.23.58.42.22,1.52.57,1.87.52.54,3.02.97,3.99,1.63,3.7,2.53,9.21,8.24,11.18,12.4,1.14,2.42,3.38,13.61,1.57,15.45.58,5.65-1.04,10.87-3.62,15.38-.34.59-2.91,3.11-3.03,3.38-.28.64.54,1.27.4,1.75-.06.21-2.9,2.71-3.3,3.04-3.73,3.1-7.28,3.48-10.92,5.83-.6.39-.46,1.27-.52,1.31-.41.26-1.81-1.19-2.33-1.32s-.15.99-.65,1.19c-.13.05-2.64.59-2.78.6-14.81,1.14-27.24-6.84-32-20.99-.24-.7-1.84-8.06-1.66-8.45.81-1.73,8.2-3.45,10.31-3.89,1.43-.3,1.98,1.46,2.53-.8,2.16.72,2.01,7.13,2.51,8.36.39.97,1.6.9,1.77,1.16.13.19-1.22,2.33.75,4.18.61.57,1.54.31,1.87.63.36.36-.09,1.22.98,2.09,1.72,1.4,5.15,2,7.24,2.84.64.26,1.17,1.4,1.72,1.44.2.02,3.17-1,3.88-1.22.98-.31,1.77-.53,3.14-.96,3.25-1,8.89-6.18,7.47-9.76,3.19.18,1.46-.16,1.62-1.54.4-3.35.95-6.89.07-10.22-1.04-3.97-.97-2.72-2.95-3.81-.09-.05.42-.99-.04-1.62-1.5-2.08-3.1-1.74-3.28-1.9-.7-.59-.93-2.51-1.97-3.2-3.31-2.17-8.71-3.74-12.16-5.3-2.08-.94-4.74-1.65-6.88-2.8,1.57-1.95-1.5-1.77-3.4-1.98l1.34-1.33c-1.04-.18-3.89-.96-4.5-1.57-1.65-1.65-3.47-6.5-4.9-8.27-.53-.65-1.95-.72-2.07-1.43-.08-.48.46-1.32.33-1.9-1.32-5.93-2.16-14.38,1.71-19.54l-1.34-1c.57.01,1.31-.28,1.62-.73,5.45-7.94,11.93-13.77,22.35-13.5.36,0,.26-1.28.58-1.26.62.03,2.3,1.03,3.6,1.13,1.96.15,4.26-.31,6.22-.47Z"/>
  <path class="st0" d="M56.17,391.99c1.03.51,2.1,1.13,3.38,1.78s2.74-.07,2.81.05c.22.41-.33,1.5.44,2.07.85.64,2.86-.23,2.97-.08.19.27-.31,1.8.14,2.56.22.38,2.27.97,3.01,1.72.99.99,2.02,3.33,2.91,4.65.49.73,1.73.96,2.23,2.04.39.84.06,3.98-.33,4.42-.27.3-6.08,2.15-7.53,2.92-1.32.7-3.04,3.97-4.57,1.47-.4-.66.04-1.76-.18-2.44-1.11-3.38-2.15-1.6-3.93-3.14-1.18-1.03-1.19-2.36-3.07-3.23-1.01-.46-6.15-.94-7.24-.72-1.74.35-3.05,1.63-4.2,1.79-.88.12-2.11-.67-2.19-.57-.15.18.23,1.39-.11,1.88-.5.73-2.36.17-2.49.28-.85.8-2.9,6.28-4.14,7.66,2.46.51.14,1.47.36,3.72s5.36,9.1,8.4,8.72l-.68,1.33c6.68,1.43,12.26,5.45,18.86,7.47l-.66,1.3c2.86-1.32,2.05.7,2.8,1.29.55.44,3.61-1.99,2.09.59,1.82,2.01,5.95,5.45,7.26,7.39.75,1.11,4.07,8.84,4.36,10.19.4,1.88-1.85,5.17,1.03,5.81-2.09.31-.68,4.7-.93,6.65-.62,4.95-5.84,16.5-9.45,19.74-1.12,1-4.15,3.01-6.24,4.2-1.05.6-7.1,3.62-7.52,3.28-.17-.14-.06-1.29-.45-1.18-3.89,1.1-4.27,1.43-8.79,1.36-1.58-.02-2.6-1.6-2.35.66l-1.33-1.34-.34,1.34c-1.33-2.08-3.87-1.3-5.45-1.9-5.96-2.27-12.11-8.76-14.99-14.8-.73-1.53-3.27-9.1-3.47-10.66-.6-4.8,1.43-2.85,3.52-3.69.57-.23.47-1.1,1.01-1.26.94-.28,9.18-1.63,9.6-1.39.03,4.53,1.75,12.69,5.71,15.54.78.56,1.7.2,2.55.61.36.18.38,1.03,1.02,1.32.97.44,2.6.23,3.72.74.76.35.11,1.59,1.15,1.32-.33-2.45,1.57-.54,3.54-.78,2.99-.36,8.65-2.67,10.65-4.93.5-.56.14-1.41.6-2.08.42-.61,1.56-.72,1.88-1.11.55-.68.15-4.26.21-4.85.04-.48,1.21-.33,1.34-.87.37-1.47-1.31-11.2-2.27-12.8-.22-.37-5.54-6-5.92-6.19-.35-.17-1.4.83-1.83.53-.55-.39-.52-2.85-3.48-1.97l.69-1.34c-2.54,1.34-1.83-.43-2.52-.64-1.76-.52-9.4-2.31-10.25-3.47-.09-.12.69-1.09.59-1.23-.27-.38-6.11-1.95-7.24-2.85-.14-.12.42-1.02-.05-1.61-3.73-4.63-4.73-3.32-7.91-9.77-.18-.37-1.28-.35-1.58-1.18-2.7-7.44-.47-12.72,1.03-19.7.19-.89-.46-1.96-.37-2.01.24-.15,1.3.28,1.85-.18.23-.19,1.53-3.47,2.89-4.79.95-.93,1.67-1.89,2.66-2.82,3.29-3.14,8.49-5.91,12.93-6.55,1.46-.21,13.27-.6,13.89-.29Z"/>
  <path class="st0" d="M251.37,396.23c1.63,2.25,3.72,5.39,5.15,7.99,1.72,3.11,2.68,8.98,6.03,10.48l-1.34,1.33c2.13.06,4.08,4.18,4.47,5.87.12.54-.51,1.5-.44,1.55.25.18,1.52-.22,1.97.05.07.04-.34.84-.14,1.27,1.54,3.38,3.76,6.42,4.58,10.13,1.26-.39,3.33-2.93,3.98-4.11,2.46-4.43,5.88-13.94,8.49-17.15,3.09-3.8,4.39-8.28,7.43-13.31.27-.45,1.1-.5,1.15-.61.3-.64-1.29-5.99,1.5-3.93,1.26-5.49,2.1-1.3,2.35-1.34.51-.07,1.6-1.08,2.81-1.13,2.18-.1,6.73.68,8.77.91.81.09,1.48-.44,2.26-.45-.49,4.07-3.44,6.61-5.2,9.96-2.88,5.5-4.79,10.38-7.68,15.78-3.69,6.89-7.96,15.21-12.48,22.78-.29.49-1.23.55-1.42.81-.27.37.6,2.08.34,2.43-4.25,5.65-3.88,5.28-4.11,12.02-.05,1.35-1.06,4.81-.95,5.36.2,1.03,3.64.92.64,1.93.47,5.12-.09,10.33-.03,15.45.03,2.51.06,4.39.04,6.81-.02,1.82-.46,5.89,1.22,6.09-2.49.58-.89,1.76-.68,3.7-4.79.7-9.37-.76-14.14.68.17-1.31-.54-2.57-.61-3.79-.77-13.33,1.03-28.23.44-41.73-3.93-5.1-6.8-12.41-10.04-18.63-5.8-11.11-12.11-21.56-17.89-32.42-.17-.31.52-1.13.46-1.17-3.31.24-1.36-.36-1.58-1.58-.2-1.11-1.82-3.45-1.12-4.49.42-.62,13.94-.54,14.81.35.54.56.52,1.49.95,2.08Z"/>
  <path class="st0" d="M643.21,519.38c.29.18.55,1.24,1.23,1.71,2.24,1.55,7.35,4.27,3.34,6.89-3.26,2.13-5.23-2.19-6.57-3.23-.19-.15-4.04-1.32-4.41-1.4-2.04-.43-2.98.35-4.63.48-.91.07-2.03-.66-2.58-.52-.75.19-.79,1.44-1.19,1.71-1.38.93-4.18,1.98-5.63,3.86-.93,1.21-1.36,2.95-1.97,4.28-.07.16-.72.15-.83.52-.65,2.09,1.17,1.27,1.15,2.33-1.26-.55-1.94,2.2-1.95,3.1,0,.33,1.17.18,1.19.58.07,1.81-.3,4.2.26,6.12.1.34.8.31.88.48,1.8,3.71,2.18,2.72,4.77,4.77.63.5,3.57,3.92,4.59,3.89,1.64-.06,5.3-.26,6.7-.78,2.44-.9,10.53-7.82,7.8-10.02-.08-.06-.86.63-1.16.45-.17-.1-.1-1.05-.61-1.17-1.53-.36-6.43,1.42-7.63.68v-6.06c2.15.8,14.23-.24,14.86.33,1.11,1.02.63,11.83-2.72,11.81l1.34,1c-1.41,1.72-4.75,4.09-4.04,6.4-2.81-1.37-1.58.34-3.13,1.23-3.79,2.19-11.31,2.67-15.2.78-2.49-1.21-9.09-7.08-10.31-9.48-.38-.75.35-1.64.21-1.87-.21-.33-1.57-.31-1.7-1.06-.08-.46.65-1.45.38-2.57-.23-.97-1.44-1.61-1.66-3.21-.62-4.35,2.19-12.04,4.7-15.53.19-.27-.17-1.01-.03-1.18,1.02-1.22,8.19-5.93,9.91-6.53,4.71-1.66,8.82-.94,13.02,1.15.54.27,1.37-.12,1.65.06Z"/>
  <path class="st0" d="M80.92,551.25c.99.55.87,2.56,2.21,2.92,8.96,2.41,11.58-1.88,12.54-9.98.18-1.51.52-10.17.32-11.23-.09-.45-1.38-.18-1.25-.64s1.03-1.01,1.05-2c.06-2.61-1.29-10.39.96-12.11,1.26-.97,4.31-.86,4.62,1.76.44,3.78-.24,9.19-.19,13.05.04,2.92.74,6.85.64,10.11-.03.98-1.21,8.63-1.42,9.08-.84,1.77-3.48,3.26-4.36,4.35-.51.63.03,1.49-.08,1.6-.89.95-3.95.84-5.09,1.25-.85.3-.73,1.44-1.31,1.56-3.05.62-6.89-1-9.48-2.49-.66-.38-.84-1.32-.98-1.38-.31-.14-1.15.56-1.2.5-.11-.15.21-1.21-.18-1.81-.27-.42-3.99-3.17-4.19-3.55-.14-.25.04-4.63,0-5.75-.16-3.49-.65-1.86.33-5.42.13-.46-1.22-.18-1.26-.62-.53-6.15,1.99-11.57-.03-17.62,2.48-.41-.37-2.23.93-4.37,1.88-.32,4.91-1.3,5.35,1.32l-.03,28.38,2.11,3.1Z"/>
  <path class="st0" d="M569.9,522.54l1.34-.68c-.6,2.45,1.54,5.35,2.53,7.92,2.38,6.16,4.77,12.04,7.37,18.06,1.67,3.87,3.43,7.8,4.93,11.76-1.65-.68-3.03.4-4.66.47-5.45.22-2.02-1.33-2.89-4.67-.23-.86-2.04-4.16-3.21-3.89l1.34-1.33c-1.94.6-2.75-.91-3.71-1.36-.52-.24-.14,1.25-.73,1.39-1.59.36-2.6-1.04-3.98-1.28-2.34-.41-6.29,1.71-8.97.66-.99.68-2.47,6.63-3.01,7.66-.28.53-1.11.27-1.16.35-.35.53,1.52,1.07,1.01,2.01-.62,1.14-2.53-.4-3.96-.03-.59.15-.29,1.56-.76,1.37-.3-.12-2.26-.95-2.37-1.03-1.61-1.17.99-2.26,1.14-2.55,1.94-3.6,3.43-8.23,4.85-11.79,2.61-6.58,5.94-12.68,8.64-19.67,1.29-3.32.45-2.59.98-4.89.05-.21,1.77-3.74,1.95-3.86,2.27-1.54,3.7,3.81,3.34,5.37ZM572.34,538.86c-.13-.29-1.18-.37-1.5-1.11-.92-2.1-1.53-5.03-2.63-7.12-2.94,2.19-2.85,5.25-3.93,8.2-.8,2.2-3.77,4.79-.8,5.29.45.08,8.77,0,9.11-.32,1.1-1.02.31-3.71-.26-4.94Z"/>
  <path class="st0" d="M360.85,517.94c.22.19.13.86.12,1.22h.66c-.19-3.11,1.94.23,3.71.01l-.34-1.35h6.07c-.6,1.69.59,3.92.6,5.1,0,.34-.99.23-1.08.42-.29.62,1.34.83-1.21,1.89-.99-4.53-1.39-.69-2.65-.6-1.75.13-3.45-.46-5.1-.5-.82-.02-1.71.89-2.33.83-.78-.07-1.77-1.55-3.06-1.08-.38,3.2-.89,6.19-.38,9.46.85,1.28,14.06-.42,15.21.67.19.18-.53,4.62,0,5.37-2.82-.41-6.39.83-9.07.65-1.19-.08-3.2-2.07-5.46,0-1.72,1.58.06,7.3-.43,9.15-.31,1.16-1.69-1.31-.14,2.81.16.43-.28,1.3-.08,1.57.96,1.28,12.57.34,15.16,0l.69,6.05c-2.06-.28-3.66.94-5.07,1.36-.38.11-.2-1.17-.74-1.32-1.12-.32-9.21-.07-10.03,1.31-.16-2.33-4.06-.36-5.07-.99-1.7-1.05-.24-9.13-.25-10.85-.01-2.21-2.04-5.63.27-8.08-2.75-.63-.32-.82-.22-1.99.08-.94-1.24-6.82-1.16-8.04.02-.24,2.38-.06.67-3.93-.38-.85-1.34-.22-1.32-.83s1.26,0,1.41-.76c.43-2.25-2.28-6.15,1.9-7.29.42-.11,8.39-.54,8.72-.26Z"/>
  <path class="st0" d="M673.69,393.14c.56,3.76-1.87,4.62-2.91,6.93-3.26,7.24-6.84,15.53-10.73,23.58-.94,1.94-2.4,6.49-3.57,7.93-.93,1.15-5.34-.97-6.52-1.45-.51-.21-.59-1.1-.67-1.13-.47-.18-1.58.77-1.9.53-.74-.55,1.17-6.22,1.6-7.57.54-1.68,1.56-3.11,2.11-4.56,3.23-8.55,5.84-17.38,9.59-24.63.26-.5-.46-3.06,1.84-3.03,2.66.04,7.89,3.99,11.15,3.39Z"/>
  <path class="st0" d="M766.71,525.23c-.12-.07-.17-1.77-1.71-2.02-.64,2.37-1.73,1.02-3.49.93-.71-.04-1.5.48-1.83.43-.77-.11-.06-1.39-.73-1.36s-.09.93-.45,1.25c-.17.16-3-.83-3.92,1.8,2.26.59.58,1,.69,2.69.04.64.44,4.47.58,4.66,1.33,1.79,6.78-.4,7.86-.16.41.09.26,1.18.6,1.17.78-.04,6.25-.87,6.45-.61.56,1.41-.76,3.44-.71,4.34.05.74,1.69-.11,1.38,1.04l-16.17.71c.19,1.75.88,6.41.53,7.74-.11.43-1.23.31-1.25.69-.01.28,1.13,5.25,1.36,5.39,1.09.67,3.94-.66,5.1-.23.4.15.25,1.24.62,1.19,1.08-.13,4.8-2.63,4.42,0h.66c-.63-2.19,4.18-.81,4.63.46.09.24-.07,3.42-.21,3.63-.42.6-2.03-.36-2.06,1.32-1.99.34-.07-1.21-.33-1.35-1.02-.55-1.7,1.08-2.36,1.13-.81.06-1.52-.98-2.04-1.14-.39-.12-.21,1.3-.74,1.39-1.2.2-6.17-1.75-5.66.63-1.19.29-.44-1.14-.67-1.34-.39-.33-1.26,1.18-1.68,1.35-.56-2.52-3.2-.57-5.07-.98l-.24-40.84c1.28-2.34,5.68-.21,7.62-.29,2.51-.11,6.84-1.21,9.73-.99,1.1.08,3.05.63,3.6,1.64.1.17.2,3.79.14,3.98-.42,1.53-1.87.33-2.82.55-.77.18-1.47,1.42-1.84,1.21Z"/>
  <path class="st0" d="M518.59,518.57c.41.41.38,5.6.07,5.99-.86-.92-3.15-.06-3.27-.17-.25-.23.17-1.38-.42-1.18-.33.11-.59.92-1.74,1.04-1.64.18-5.38.31-6.36-1.04l-.34,1.34c-4.71-2.82-2.81.56-3.07,3.06-.08.73-1.03,2.56-.83,3.35.1.4.95.3,1.03.5.32.8-.95,2,.6,2.46l14.4.07c-.53,1.07-.18,5.6-.69,6.05s-3.3-.67-4.36-.67c-4.09.02-2.39.62-6.76-.67-.19-.06-.28,2.59-3.02.68-.56.74-.1,3.13-.21,3.26-.22.27-1.35-.15-1.14.44.09.26.92.66,1.01,1.36.7,5.59-3.98,9.22,4.17,10.14,5.33.61,13.42-4.27,10.95,5.67l-20.85-.67v-41.79c2.01,2.16,2.4.25,3.81.13,1.02-.09,6.31-.06,7.99-.05,1.21,0,8.69.36,9.01.68Z"/>
  <path class="st0" d="M691.42,548.6c.19.6,3.22,2.53,1.8,3.59h2.04c-2.16,2,4.46,2.89,5.64,2.74.17-.02-.17-.55,2.58-.88,2.97-.35,1.09-1.45,1.29-1.75.24-.35,2.71-1.04,3.11-1.58.17-.23-.39-2.14-.16-2.88.36-1.21,1.73-2.22,1.71-3.39,0-.37-1.11-.29-1.25-.67s.03-7.3.16-8.11c.62-4.13-.07-1.42-.18-2.65-.16-1.76.87-4.64.88-6.1.02-2.8-.41-5.7-.99-8.43,1.32-1.17,3.2.77,3.36.66.06-.04-.12-1.36.4-1.39,3.26-.14,1.68,2.36,1.68,4.41,0,5.7.08,11.23,0,16.89-.13,7.97,1.35,7.47-2.34,14.56-.4.77-.2,2.02-.52,2.48-.22.31-5.92,3.6-6.62,3.84-4.4,1.47-3.99.92-8.07-.02-.71-.16-1.57.31-1.89.18s-5.2-4.33-5.33-4.66c-.14-.37.46-1.09.33-1.48-.15-.47-2.8-3.38-3.11-5.62-.24-1.73,1.69-2.58-.79-3.21,2.49-3.42-.31-10.42.01-14.12.03-.34,2.86-4.58-.01-5.43,2.27-1.2.51-7,1.35-7.77.13-.12,3.24.33,3.39.41,2.47,1.3.95,5.82,1.03,8.02.16,4.15-.35,19.72.51,22.36Z"/>
  <path class="st0" d="M158.77,525.23c-1.73-.63-3.37,2.27-4.37,2.03-.65-.16-1.29-2.19-2.01-2.76-.16-.13-3.74-1.13-3.95-1.13-1.38.02-4.06,1.6-4.95,2.71-.14.17.36.72.22,1.02-.11.22-1.13.02-1.14.49,0,.27,2.33,4.39,2.71,4.68,1.01.78,3.41,1.94,4.73,2.66.5.27,1.44-.4,1.85-.12.89.6,3.44,3.63,4.4,4.1.77.37,1.74-.23,1.81-.17.63.57-.02,2.53.08,2.91.37,1.31,1.76,3.46,1.83,6.22.04,1.81-.78,3.79-.54,5.69l-1.34-.69c-.61,2.92-2.61,5.45-5.16,7.39-2.05-1.36-1.37.57-2.03.72-.36.09-7.1-.31-7.48-.49-.98-.47-3.77-3.74-5.27-4.42.32-1.8-1.92-3.04-2.13-4.31-.12-.7.72-1.78.42-2.17-.27-.34-1.56.39-1.27-.75,1.73-.2,4.78-1.89,6.29-.75,1.04.78.32,2.67,1.09,3.8,1.1,1.61,2.78,1.12,3.05,1.63.41.78-1.7,1.95,2.64,1.33,4.57-.66,6.99-4.54,6.1-9.03-.66-3.31-1.3-2.24-2.91-3.47-3.4-2.6-6.87-2.66-9.52-4.64-2.5-1.86-4.88-6.22-4.79-9.43.13-4.93,2.95-7.51,6.32-10.23,7.46-2.08,12.32.07,15.31,7.2Z"/>
  <path class="st0" d="M315.6,520.04c1.38,1.84.27,4.49.19,6.55-2.16.18-2.29-1.56-2.83-1.91-.4-.26-1.25.43-1.89.16-1.63-.69-1.78-2.14-4.71-.96.27-.56,1.36-1.71-.31-1.33-1.38.32-7.95,2.98-9.06,3.75-.85.59-4.51,4.84-4.63,5.35-.12.55.64,2.53.48,3.26-.11.5-1.07.42-1.14.76-.54,2.83-.1,7.81.53,10.65.12.54,1.19.64,1.57,1.33.49.88.69,2.48,1.11,2.81,4.96,3.95,11.72,5.75,17.53,2.64.78-.42,2.08-2.25,2.35-2.25,2.06.03,1.51,6.04.02,7.48-.4.38-1.1,0-1.52.22-.17.09-.11.83-1.19,1.13-1.86.5-7.52,1.3-9.14.99-6.88-1.3-10.96-5.67-14.15-11.36-1.27-2.27-.38-1.09-.96-2.82-.76-2.26-1.63-4.53-2.38-6.8,2.76-.62.26-.89.22-1.98-.01-.38.89-1.11.93-1.88.05-1.01-.39-3.58-.32-3.76.19-.43,3.74-4.68,4.47-5.93.59-1.02.67-2.84.77-2.95.05-.05.96.69,1.21.54.22-.14.49-1.25,1.22-1.77,2.08-1.49,7.67-4.65,10.09-4.8,2.21-.14,10.32,1.27,11.52,2.88Z"/>
  <path class="st0" d="M195.17,519.16c1.85-2.16,2.63-.15,3.69-.24.55-.04,1.12-1.13,1.9-1,.61.1,1.26,1.23,2.17,1.26,1.02.03,2.02-1.65,2.35-1.37.25.22-.55,1.61.67,1.34l.34-1.34c1.37,2.28,4.72.24,6.64.77.72.2,1.28,4.4,1.1,4.58-1.18,1.22-7.44.25-9.43,1.4,1.67,6.99.47,14.4.37,21.54-.01.8.64,1.27.63,2.07-.03,1.77-.33,11.63-1,12.11-.87-.08-2.49-1.3-3.05-1.35-.16-.01-.45,3.12-2.18.23l-.13-34.76-3.05-1.2.34,1.35c-1.28-1.2-5.19.2-5.38,0-.38-.4-.05-2.28-.23-2.58-.19-.31-1.44.3-1.13-.78,2.38.32.59-1.36.98-2.04.78-1.33,3.15.59,4.07-1.34l.34,1.34Z"/>
  <path class="st0" d="M454.65,518.5l-.74,17.9c1.55,1.57.87,3.01.73,5.34-.22,3.71-.28,7.37-.63,11.06,2.16,1.93,8.93.93,10.5,2.05.72.52.31,1.29.55,1.9.06.16,1.01.16.99.46-.13,2.62-2.13,2.34-3.67,3.74l-.32-1.33c-1.92.93-7.73-1.04-7.43,1.34l-.67-1.34-2.01,1.35c1.5-3.75-.32-1.21-2.36-1.32-2.81-.15-.7-1.76-.67-2.35.17-3.73-.02-5.46-1.02-8.81-.12-.41,1.39-.24,1.39-.69.01-.62-.71-1.6-.71-2.67,0-6.05,1.63-11.31-.68-16.85-.22-.54,1.17-.12,1.36-.75.15-.52-.61-7.68-.67-8.98l6.05-.03Z"/>
  <path class="st0" d="M37.3,542.64c-1.9,2.48-.06,5.01-.66,8.37-.46,2.61-2.54,5.28-3.39,7.76-4.02.46-7.23,3.93-11.3,1.05-1.68-1.19-1.31-2.59-.49-4.41,1.83-4.01,5.05,1.46,8.42-1.36.27-1.99,1.83-5.47,2.05-7.06.19-1.45-1.36-5.21-1.14-5.94.11-.34,2.89-.7.03-1.05,1.47-2.38-1.56-6.37,1.25-7.01-2.74-.7-.33-.85-.23-2.02.04-.5-.77-1.22-.79-2-.07-3.49.55-7.01-.34-10.47,8.91-1.11,5.81,2.44,5.63,7.66-.1,2.93,1.46,15.83.96,16.49Z"/>
  <path class="st0" d="M251.77,518.51c-1.1,13.86.56,28-.68,41.77-1.25.26-.22-1.25-1-1.35-.61-.08.35,1.8-2.02,1.38-4.02-.71-1.13-8.93-1.29-10.46-.18-1.69-.52-1.33-.46-4.11.01-.46-1.48-.05-1.28-.61.05-.15.86-2.13.92-2.24.12-.22,2.7-.11-.19-1.08l1.24-9.55c-3.42-1.21-.01-1.64.06-1.97.38-1.65-.93-.73-1.35-1.01-.27-1.11.8-.32,1.2-.99.68-1.13-1.04-1.89-1.07-2.02-.03-.14-.04-2.6-.03-2.75.05-.57,1.49-.03,1.23-.64-.14-.33-1.02-.65-1.09-1.35-.02-.18.93-3.29,1.06-3.41.27-.24,4.57.14,4.74.39Z"/>
</svg>