<?xml version="1.0" encoding="UTF-8"?>
<svg id="Layer_1" xmlns="http://www.w3.org/2000/svg" version="1.1" viewBox="0 0 792 1224">
  <!-- Generator: Adobe Illustrator 29.1.0, SVG Export Plug-In . SVG Version: 2.1.0 Build 142)  -->
  <defs>
    <style>
      .st0 {
        fill: #fff7ed;
      }

      .st1 {
        fill: #e54525;
      }
    </style>
  </defs>
  <g>
    <rect class="st0" width="790.57" height="790.57"/>
    <g>
      <rect class="st1" width="79.06" height="79.06"/>
      <rect class="st1" x="79.06" y="79.06" width="79.06" height="79.06"/>
      <rect class="st1" x="237.17" y="79.06" width="79.06" height="79.06"/>
      <rect class="st1" x="395.29" y="79.06" width="79.06" height="79.06"/>
      <rect class="st1" x="553.4" y="79.06" width="79.06" height="79.06"/>
      <rect class="st1" x="711.51" y="79.06" width="79.06" height="79.06"/>
      <rect class="st1" x="158.11" width="79.06" height="79.06"/>
      <rect class="st1" x="316.23" width="79.06" height="79.06"/>
      <rect class="st1" x="474.34" width="79.06" height="79.06"/>
      <rect class="st1" x="632.46" width="79.06" height="79.06"/>
    </g>
    <g>
      <rect class="st1" y="158.11" width="79.06" height="79.06"/>
      <rect class="st1" x="79.06" y="237.17" width="79.06" height="79.06"/>
      <rect class="st1" x="237.17" y="237.17" width="79.06" height="79.06"/>
      <rect class="st1" x="395.29" y="237.17" width="79.06" height="79.06"/>
      <rect class="st1" x="553.4" y="237.17" width="79.06" height="79.06"/>
      <rect class="st1" x="711.51" y="237.17" width="79.06" height="79.06"/>
      <rect class="st1" x="158.11" y="158.11" width="79.06" height="79.06"/>
      <rect class="st1" x="316.23" y="158.11" width="79.06" height="79.06"/>
      <rect class="st1" x="474.34" y="158.11" width="79.06" height="79.06"/>
      <rect class="st1" x="632.46" y="158.11" width="79.06" height="79.06"/>
    </g>
    <g>
      <rect class="st1" y="316.23" width="79.06" height="79.06"/>
      <rect class="st1" x="79.06" y="395.29" width="79.06" height="79.06"/>
      <rect class="st1" x="237.17" y="395.29" width="79.06" height="79.06"/>
      <rect class="st1" x="395.29" y="395.29" width="79.06" height="79.06"/>
      <rect class="st1" x="553.4" y="395.29" width="79.06" height="79.06"/>
      <rect class="st1" x="711.51" y="395.29" width="79.06" height="79.06"/>
      <rect class="st1" x="158.11" y="316.23" width="79.06" height="79.06"/>
      <rect class="st1" x="316.23" y="316.23" width="79.06" height="79.06"/>
      <rect class="st1" x="474.34" y="316.23" width="79.06" height="79.06"/>
      <rect class="st1" x="632.46" y="316.23" width="79.06" height="79.06"/>
    </g>
    <g>
      <rect class="st1" y="474.34" width="79.06" height="79.06"/>
      <rect class="st1" x="79.06" y="553.4" width="79.06" height="79.06"/>
      <rect class="st1" x="237.17" y="553.4" width="79.06" height="79.06"/>
      <rect class="st1" x="395.29" y="553.4" width="79.06" height="79.06"/>
      <rect class="st1" x="553.4" y="553.4" width="79.06" height="79.06"/>
      <rect class="st1" x="711.51" y="553.4" width="79.06" height="79.06"/>
      <rect class="st1" x="158.11" y="474.34" width="79.06" height="79.06"/>
      <rect class="st1" x="316.23" y="474.34" width="79.06" height="79.06"/>
      <rect class="st1" x="474.34" y="474.34" width="79.06" height="79.06"/>
      <rect class="st1" x="632.46" y="474.34" width="79.06" height="79.06"/>
    </g>
    <g>
      <rect class="st1" y="632.46" width="79.06" height="79.06"/>
      <rect class="st1" x="79.06" y="711.51" width="79.06" height="79.06"/>
      <rect class="st1" x="237.17" y="711.51" width="79.06" height="79.06"/>
      <rect class="st1" x="395.29" y="711.51" width="79.06" height="79.06"/>
      <rect class="st1" x="553.4" y="711.51" width="79.06" height="79.06"/>
      <rect class="st1" x="711.51" y="711.51" width="79.06" height="79.06"/>
      <rect class="st1" x="158.11" y="632.46" width="79.06" height="79.06"/>
      <rect class="st1" x="316.23" y="632.46" width="79.06" height="79.06"/>
      <rect class="st1" x="474.34" y="632.46" width="79.06" height="79.06"/>
      <rect class="st1" x="632.46" y="632.46" width="79.06" height="79.06"/>
    </g>
  </g>
  <g>
    <rect class="st0" y="790.57" width="792" height="792"/>
    <g>
      <rect class="st1" y="790.57" width="79.2" height="79.2"/>
      <rect class="st1" x="79.2" y="869.77" width="79.2" height="79.2"/>
      <rect class="st1" x="237.6" y="869.77" width="79.2" height="79.2"/>
      <rect class="st1" x="396" y="869.77" width="79.2" height="79.2"/>
      <rect class="st1" x="554.4" y="869.77" width="79.2" height="79.2"/>
      <rect class="st1" x="712.8" y="869.77" width="79.2" height="79.2"/>
      <rect class="st1" x="158.4" y="790.57" width="79.2" height="79.2"/>
      <rect class="st1" x="316.8" y="790.57" width="79.2" height="79.2"/>
      <rect class="st1" x="475.2" y="790.57" width="79.2" height="79.2"/>
      <rect class="st1" x="633.6" y="790.57" width="79.2" height="79.2"/>
    </g>
    <g>
      <rect class="st1" y="948.97" width="79.2" height="79.2"/>
      <rect class="st1" x="79.2" y="1028.17" width="79.2" height="79.2"/>
      <rect class="st1" x="237.6" y="1028.17" width="79.2" height="79.2"/>
      <rect class="st1" x="396" y="1028.17" width="79.2" height="79.2"/>
      <rect class="st1" x="554.4" y="1028.17" width="79.2" height="79.2"/>
      <rect class="st1" x="712.8" y="1028.17" width="79.2" height="79.2"/>
      <rect class="st1" x="158.4" y="948.97" width="79.2" height="79.2"/>
      <rect class="st1" x="316.8" y="948.97" width="79.2" height="79.2"/>
      <rect class="st1" x="475.2" y="948.97" width="79.2" height="79.2"/>
      <rect class="st1" x="633.6" y="948.97" width="79.2" height="79.2"/>
    </g>
    <g>
      <rect class="st1" y="1107.37" width="79.2" height="79.2"/>
      <rect class="st1" x="79.2" y="1186.57" width="79.2" height="79.2"/>
      <rect class="st1" x="237.6" y="1186.57" width="79.2" height="79.2"/>
      <rect class="st1" x="396" y="1186.57" width="79.2" height="79.2"/>
      <rect class="st1" x="554.4" y="1186.57" width="79.2" height="79.2"/>
      <rect class="st1" x="712.8" y="1186.57" width="79.2" height="79.2"/>
      <rect class="st1" x="158.4" y="1107.37" width="79.2" height="79.2"/>
      <rect class="st1" x="316.8" y="1107.37" width="79.2" height="79.2"/>
      <rect class="st1" x="475.2" y="1107.37" width="79.2" height="79.2"/>
      <rect class="st1" x="633.6" y="1107.37" width="79.2" height="79.2"/>
    </g>
    <g>
      <rect class="st1" y="1265.77" width="79.2" height="79.2"/>
      <rect class="st1" x="79.2" y="1344.97" width="79.2" height="79.2"/>
      <rect class="st1" x="237.6" y="1344.97" width="79.2" height="79.2"/>
      <rect class="st1" x="396" y="1344.97" width="79.2" height="79.2"/>
      <rect class="st1" x="554.4" y="1344.97" width="79.2" height="79.2"/>
      <rect class="st1" x="712.8" y="1344.97" width="79.2" height="79.2"/>
      <rect class="st1" x="158.4" y="1265.77" width="79.2" height="79.2"/>
      <rect class="st1" x="316.8" y="1265.77" width="79.2" height="79.2"/>
      <rect class="st1" x="475.2" y="1265.77" width="79.2" height="79.2"/>
      <rect class="st1" x="633.6" y="1265.77" width="79.2" height="79.2"/>
    </g>
    <g>
      <rect class="st1" y="1424.17" width="79.2" height="79.2"/>
      <rect class="st1" x="79.2" y="1503.37" width="79.2" height="79.2"/>
      <rect class="st1" x="237.6" y="1503.37" width="79.2" height="79.2"/>
      <rect class="st1" x="396" y="1503.37" width="79.2" height="79.2"/>
      <rect class="st1" x="554.4" y="1503.37" width="79.2" height="79.2"/>
      <rect class="st1" x="712.8" y="1503.37" width="79.2" height="79.2"/>
      <rect class="st1" x="158.4" y="1424.17" width="79.2" height="79.2"/>
      <rect class="st1" x="316.8" y="1424.17" width="79.2" height="79.2"/>
      <rect class="st1" x="475.2" y="1424.17" width="79.2" height="79.2"/>
      <rect class="st1" x="633.6" y="1424.17" width="79.2" height="79.2"/>
    </g>
  </g>
</svg>